<svg xmlns="http://www.w3.org/2000/svg" viewBox="0 0 37.07 26.61"><defs><style>.cls-1{fill:#60a5fa;}</style></defs><g id="Capa_2" data-name="Capa 2"><g id="Capa_1-2" data-name="Capa 1"><path class="cls-1" d="M22.57,26.61l-.65-.14a7.14,7.14,0,0,1-1.61-.76q-4-2.25-8.06-4.48a4.55,4.55,0,0,0-3.79-.34l-1,.32-.13,0V11.81l.83-.12,2.76-.36a9,9,0,0,1,4.85.79c.89.41,1.75.92,2.61,1.39l6.59,3.67a1.43,1.43,0,0,1,.66,1.29,1.53,1.53,0,0,1-.53,1.34.8.8,0,0,1-.88.13l-2.41-1-4.39-1.85a.38.38,0,0,0-.37,0,.6.6,0,0,0-.25.54.57.57,0,0,0,.3.53l1.08.45c1.9.8,3.81,1.59,5.71,2.41a1.79,1.79,0,0,0,2.39-1.33,4.8,4.8,0,0,0,.18-.79c0-.12.05-.17.13-.2L31.06,17l4.32-1.65c.81-.32,1.53.35,1.67,1.32,0,0,0,0,0,.05v.55a.14.14,0,0,0,0,.07,1.77,1.77,0,0,1-.75,1.27l-2.45,1.62-8,5.33a6.2,6.2,0,0,1-1.78.93l-.66.14Z"/><path class="cls-1" d="M0,9.2H2.63c.33,0,.43.11.43.44q0,7.11,0,14.2a1.48,1.48,0,0,1,0,.21.31.31,0,0,1-.33.33H0Z"/><path class="cls-1" d="M19.49,0c.22.3.43.61.66.91,1.2,1.59,2.41,3.17,3.62,4.76.05.08.11.15.19.26l-.24,0H21.61c-.34,0-.38,0-.38.38,0,3.91,0,.36,0,4.28V11H18c-.29,0-.29,0-.29-.28V6.37c0-.39,0-.42-.41-.42H15L19.45,0Z"/><path class="cls-1" d="M4.23,10.36H5.74a.38.38,0,0,1,.4.4V22.68a1.48,1.48,0,0,1,0,.21.35.35,0,0,1-.33.33H4.23Z"/></g></g></svg>