<svg xmlns="http://www.w3.org/2000/svg" viewBox="0 0 26.3 25.69"><defs><style>.cls-1{fill:#60a5fa;}</style></defs><g id="Capa_2" data-name="Capa 2"><g id="Capa_1-2" data-name="Capa 1"><path class="cls-1" d="M23.4,20c0,1.66,0,3.31,0,5,0,.61-.14.75-.76.75q-2.91,0-5.82,0H9.46c-1.93,0-3.87,0-5.81,0-.6,0-.74-.13-.75-.72,0-3.33,0-6.67,0-10a1.11,1.11,0,0,1,.3-.71c3.13-3.16,6.29-6.31,9.44-9.46.4-.4.59-.4,1,0q4.72,4.73,9.44,9.46a1.11,1.11,0,0,1,.29.72c0,1.66,0,3.33,0,5Z"/><path class="cls-1" d="M13.21,2.37,9,6.56l-7.21,7.2a1,1,0,0,1-1.51.1,1,1,0,0,1,.1-1.52L12.34.41A1,1,0,0,1,14,.42q6,6,12,12a1,1,0,1,1-1.42,1.41l-11-10.95A4.41,4.41,0,0,1,13.21,2.37Z"/></g></g></svg>