<svg xmlns="http://www.w3.org/2000/svg" viewBox="0 0 26.21 26.21"><defs><style>.cls-1{fill:#60a5fa;}</style></defs><g id="Capa_2" data-name="Capa 2"><g id="Capa_1-2" data-name="Capa 1"><path class="cls-1" d="M23.3,26.21,19,21.83,17.25,20.1c-.58-.58-.63-.86-.28-1.55l-2.21-2.2a9.45,9.45,0,0,1-4,1.79A9.16,9.16,0,0,1,.1,10.45a1.31,1.31,0,0,0-.1-.32v-2a2,2,0,0,0,.1-.26A8.94,8.94,0,0,1,5.87.61,17.38,17.38,0,0,1,8.15,0h2c.67.17,1.36.28,2,.51a9.13,9.13,0,0,1,4.29,14.12c-.07.09-.13.19-.17.25l2.2,2.18c.69-.34.94-.29,1.56.33l5.76,5.75a5.39,5.39,0,0,0,.43.39v.35l-2.33,2.33ZM1.89,9.11a7.3,7.3,0,0,0,7.25,7.27,7.3,7.3,0,0,0,7.24-7.22A7.3,7.3,0,0,0,9.13,1.89,7.31,7.31,0,0,0,1.89,9.11Z"/></g></g></svg>