<svg xmlns="http://www.w3.org/2000/svg" viewBox="0 0 309.56 309.56"><defs><style>.cls-1{opacity:0.15;}.cls-2{fill:#c7f7ff;}</style></defs><g id="Capa_2" data-name="Capa 2"><g id="Capa_1-2" data-name="Capa 1"><g class="cls-1"><path class="cls-2" d="M297.66,99.5H254.29L119.69,234.1a11.49,11.49,0,0,1-16.2.05l-4-4v67.46a11.89,11.89,0,0,0,11.89,11.9h86.77a11.9,11.9,0,0,0,11.9-11.9v-87.6h87.6a11.9,11.9,0,0,0,11.9-11.9V111.39A11.89,11.89,0,0,0,297.66,99.5Z"/><path class="cls-2" d="M50.94,153.21a23.57,23.57,0,0,1,33.36,0l26.9,26.89,98.86-98.86V11.9A11.9,11.9,0,0,0,198.16,0H111.39A11.89,11.89,0,0,0,99.5,11.9V99.5H11.9A11.89,11.89,0,0,0,0,111.39v86.77a11.9,11.9,0,0,0,11.9,11.9H79.13L36.37,167.77Z"/></g></g></g></svg>