<svg xmlns="http://www.w3.org/2000/svg" viewBox="0 0 29.94 29.75"><defs><style>.cls-1{fill:#fff;}</style></defs><g id="Capa_2" data-name="Capa 2"><g id="Capa_1-2" data-name="Capa 1"><path class="cls-1" d="M29.94,15A15,15,0,1,0,11.61,29.54V18.89c0-.21,0-.42,0-.64H7.73c0-.12,0-4.39,0-4.45h3.87V10.37a9.31,9.31,0,0,1,.08-1.29,6.88,6.88,0,0,1,.39-1.53,5.7,5.7,0,0,1,1.57-2.28,6,6,0,0,1,2.9-1.36,7,7,0,0,1,1.11-.12h.73l1.08,0,.86.08,1.19.14.1,0V8.21l-.11,0h-2a3.59,3.59,0,0,0-.81.09A1.8,1.8,0,0,0,17.3,9.67a4.21,4.21,0,0,0-.13,1.11v2.9c0,.12,0,.12.11.12h4.34v0l0,.14-.24,1.35c-.16,1-.33,1.9-.5,2.85,0,.08,0,.09-.09.09H17.22s0,0,0,.05V29.56s0,.09,0,.19A15,15,0,0,0,29.94,15Z"/></g></g></svg>