<svg xmlns="http://www.w3.org/2000/svg" viewBox="0 0 108.63 108.68"><defs><style>.cls-1{opacity:0.36;}.cls-2{fill:#007bea;}</style></defs><g id="Capa_2" data-name="Capa 2"><g id="Capa_1-2" data-name="Capa 1"><g class="cls-1"><polygon class="cls-2" points="108.63 5.96 103.12 0.4 99.29 0.39 108.62 9.79 108.63 5.96"/><polygon class="cls-2" points="108.57 22.69 86.39 0.34 82.55 0.32 108.55 26.53 108.57 22.69"/><polygon class="cls-2" points="108.5 39.42 69.66 0.27 65.82 0.26 108.49 43.26 108.5 39.42"/><polygon class="cls-2" points="108.44 56.15 52.93 0.21 49.09 0.19 108.42 59.99 108.44 56.15"/><polygon class="cls-2" points="108.37 72.89 36.2 0.14 32.36 0.13 108.36 76.72 108.37 72.89"/><polygon class="cls-2" points="108.31 89.62 19.46 0.07 15.63 0.06 108.29 93.45 108.31 89.62"/><polygon class="cls-2" points="108.23 108.68 108.24 106.35 2.73 0.01 0.4 0 0.39 1.51 106.72 108.67 108.23 108.68"/><polygon class="cls-2" points="93.83 108.62 0.34 14.4 0.33 18.24 89.99 108.61 93.83 108.62"/><polygon class="cls-2" points="77.1 108.56 0.28 31.13 0.26 34.97 73.26 108.54 77.1 108.56"/><polygon class="cls-2" points="60.37 108.49 0.21 47.86 0.2 51.7 56.53 108.48 60.37 108.49"/><polygon class="cls-2" points="43.63 108.43 0.15 64.59 0.13 68.43 39.8 108.41 43.63 108.43"/><polygon class="cls-2" points="26.9 108.36 0.08 81.33 0.07 85.17 23.07 108.35 26.9 108.36"/><polygon class="cls-2" points="0 101.9 6.33 108.28 10.17 108.3 0.01 98.06 0 101.9"/></g></g></g></svg>