<svg xmlns="http://www.w3.org/2000/svg" viewBox="0 0 187.34 195.99"><defs><style>.cls-1{fill:#00b76c;}</style></defs><g id="Capa_2" data-name="Capa 2"><g id="Capa_1-2" data-name="Capa 1"><path class="cls-1" d="M103.94,29.18a49.74,49.74,0,0,0-9,.88V5.37A5.37,5.37,0,0,0,89.61,0H50.37A5.37,5.37,0,0,0,45,5.37V44.92H5.38A5.37,5.37,0,0,0,0,50.28V89.45a5.37,5.37,0,0,0,5.38,5.37H23.09a64.79,64.79,0,0,0-2.55,17.77,83.4,83.4,0,1,0,83.4-83.41ZM131.3,89.65A5.36,5.36,0,0,1,125.93,95H86.4v39.46A5.37,5.37,0,0,1,81,139.83H41.87a5.36,5.36,0,0,1-5.37-5.36V103.23L81.12,58.69,95.59,45.2h30.34a5.35,5.35,0,0,1,5.37,5.35Z"/></g></g></svg>