<svg xmlns="http://www.w3.org/2000/svg" viewBox="0 0 29.94 29.94"><defs><style>.cls-1{fill:#fff;}</style></defs><g id="Capa_2" data-name="Capa 2"><g id="Capa_1-2" data-name="Capa 1"><path class="cls-1" d="M21.5,6.64a1.49,1.49,0,0,0-.06,3A1.49,1.49,0,0,0,23,8.1,1.51,1.51,0,0,0,21.5,6.64Z"/><path class="cls-1" d="M20.64,11.49a5.46,5.46,0,0,0-2.06-2.2,6.72,6.72,0,0,0-3-1,7.28,7.28,0,0,0-1.68.06A6,6,0,0,0,12,9a6.49,6.49,0,0,0-3.38,5.11,6.83,6.83,0,0,0,.24,2.38,6,6,0,0,0,1.68,2.74,6.19,6.19,0,0,0,2.32,1.45,6.37,6.37,0,0,0,2.33.34,6.11,6.11,0,0,0,1.13-.13A6.22,6.22,0,0,0,19.56,19a6.43,6.43,0,0,0,1.77-4.37,8.08,8.08,0,0,0-.11-1.39A6.52,6.52,0,0,0,20.64,11.49Zm-3.19,6.56a4.35,4.35,0,0,1-1.86.76,4.17,4.17,0,0,1-4.65-3,4.24,4.24,0,0,1,2.74-5.24,2.89,2.89,0,0,1,1.08-.16,6.71,6.71,0,0,1,1.91.3,4.35,4.35,0,0,1,1,.49A3.31,3.31,0,0,1,19,13.1a4.89,4.89,0,0,1,.21,1.47A4.5,4.5,0,0,1,17.45,18.05Z"/><path class="cls-1" d="M15,0a15,15,0,1,0,15,15A15,15,0,0,0,15,0Zm9.86,19.91a4.64,4.64,0,0,1-.44,2,5,5,0,0,1-3.53,2.85,4.12,4.12,0,0,1-1,.11H11.16c-.48,0-1,0-1.43,0a4.32,4.32,0,0,1-2-.6,5.27,5.27,0,0,1-2.22-2.49,4.93,4.93,0,0,1-.36-1.55c0-.22,0-.43,0-.64V10.81c0-.43,0-.87,0-1.3a5.12,5.12,0,0,1,.79-2.69A5.44,5.44,0,0,1,7.49,5.26a4.71,4.71,0,0,1,2-.71c.24,0,.49,0,.74,0h9.43a5.62,5.62,0,0,1,1.16.1A5,5,0,0,1,23.27,5.9a4.81,4.81,0,0,1,1.47,2.73,5.81,5.81,0,0,1,.09,1.18c0,1.59,0,3.18,0,4.77v.14h0v.1c0,.75,0,1.49,0,2.23C24.84,18,24.84,19,24.83,19.91Z"/></g></g></svg>