<svg xmlns="http://www.w3.org/2000/svg" viewBox="0 0 333.76 334.82"><defs><style>.cls-1{fill:#00b76c;}.cls-2{fill:#007bea;}</style></defs><g id="Capa_2" data-name="Capa 2"><g id="Capa_1-2" data-name="Capa 1"><path class="cls-1" d="M320.94,107.62H274.18L129,253.21a12.35,12.35,0,0,1-17.46,0l-4.3-4.26v73a12.85,12.85,0,0,0,12.83,12.87h93.55A12.85,12.85,0,0,0,226.49,322V227.2h94.45a12.84,12.84,0,0,0,12.82-12.87V120.48A12.84,12.84,0,0,0,320.94,107.62Z"/><path class="cls-2" d="M54.92,165.71a25.37,25.37,0,0,1,36,0l29,29.09L226.49,87.87v-75A12.85,12.85,0,0,0,213.66,0H120.11a12.85,12.85,0,0,0-12.83,12.87v94.75H12.83A12.84,12.84,0,0,0,0,120.48v93.85A12.85,12.85,0,0,0,12.83,227.2H85.32l-46.1-45.74Z"/></g></g></svg>