<svg xmlns="http://www.w3.org/2000/svg" viewBox="0 0 29.94 29.94"><defs><style>.cls-1{fill:#fff;}</style></defs><g id="Capa_2" data-name="Capa 2"><g id="Capa_1-2" data-name="Capa 1"><path class="cls-1" d="M10.24,9.14a1.39,1.39,0,1,0,0,2.78,1.39,1.39,0,1,0,0-2.78Z"/><path class="cls-1" d="M11.46,13.24c0-.13,0-.15-.15-.15H9.17c-.13,0-.15,0-.15.14V17H9v3.74c0,.18,0,.19.19.18h2.14c.08,0,.1,0,.11-.11v0c0-.34,0-.67,0-1Q11.45,16.52,11.46,13.24Z"/><path class="cls-1" d="M15,0a15,15,0,1,0,15,15A15,15,0,0,0,15,0Zm9.55,19.88c0,.29,0,.57,0,.86a6.39,6.39,0,0,1-.11,1,3.74,3.74,0,0,1-1.1,2,3.7,3.7,0,0,1-2.35,1c-.39,0-.78,0-1.17.06l-.2,0H10c-.45,0-.9,0-1.34-.05a6.45,6.45,0,0,1-.88-.14A3.79,3.79,0,0,1,5.08,21.8a6.27,6.27,0,0,1-.11-1l0-.66s0,0,0-.05V9.93a.14.14,0,0,0,0-.06c0-.3,0-.6,0-.89a4.94,4.94,0,0,1,.15-.87A3.77,3.77,0,0,1,7.91,5.4a6.3,6.3,0,0,1,1-.12c.38,0,.75,0,1.13,0h9.66c.38,0,.76,0,1.13,0a6.07,6.07,0,0,1,.87.14,3.79,3.79,0,0,1,2.71,2.78,6.32,6.32,0,0,1,.15,1.37c0,1,0,2.09,0,3.13Z"/><path class="cls-1" d="M20.62,17.25c0-.38,0-.76,0-1.14a4.52,4.52,0,0,0,0-.52,3.07,3.07,0,0,0-.3-1,2.76,2.76,0,0,0-.69-.93A3,3,0,0,0,17.88,13a3.39,3.39,0,0,0-.95.07,3.11,3.11,0,0,0-1.82,1.11l-.06.06s0,0,0-.07v-.94a.08.08,0,0,0-.09-.09H13c-.14,0-.16,0-.16.16v1.18c0,1.85,0,3.69,0,5.53v.85c0,.11,0,.13.13.13h2.12c.11,0,.13,0,.13-.13V17a2.58,2.58,0,0,1,.06-.73,1.43,1.43,0,0,1,1-1.06,1.83,1.83,0,0,1,.87,0,1.3,1.3,0,0,1,1.05,1,1.74,1.74,0,0,1,.06.51v1.05c0,.44,0,.87,0,1.31v1.83a.09.09,0,0,0,.09.09h2.13c.16,0,.18,0,.18-.17,0-.46,0-.93,0-1.39Z"/></g></g></svg>