<svg xmlns="http://www.w3.org/2000/svg" viewBox="0 0 180.49 60.42"><defs><style>.cls-1{fill:#fff;}</style></defs><g id="Capa_2" data-name="Capa 2"><g id="Capa_1-2" data-name="Capa 1"><path class="cls-1" d="M79.87,25.61V53.49a.45.45,0,0,1-.46.45H71V26.07a.45.45,0,0,1,.46-.46Z"/><path class="cls-1" d="M108.53,47a13,13,0,0,1-5.15,5.1,15.71,15.71,0,0,1-7.78,1.86H83.79V25.61H95.6a16.13,16.13,0,0,1,7.78,1.8,12.66,12.66,0,0,1,5.15,5,14.65,14.65,0,0,1,1.8,7.29A14.74,14.74,0,0,1,108.53,47Zm-9-2.6a6.06,6.06,0,0,0,1.76-4.68A6.09,6.09,0,0,0,99.56,35a6.71,6.71,0,0,0-4.76-1.64H92.68V46H94.8A6.71,6.71,0,0,0,99.56,44.38Z"/><path class="cls-1" d="M122.33,32.46V36h8.81v6.68h-8.81v4h10v7.08H113.45V25.41h18.89v7.05Z"/><path class="cls-1" d="M153.79,49.47h-9.44L143,53.75h-9.33l10.29-28.13a.33.33,0,0,1,.3-.21h10l10.33,28.34h-9.37Zm-2.16-6.69-2.56-7.88-2.56,7.88Z"/><path class="cls-1" d="M175.36,47h5.13v6.72h-14V25.41h8.88Z"/><path class="cls-1" d="M58.1,19.42H49.63L23.36,45.69a2.24,2.24,0,0,1-3.16,0l-.78-.77V58.1a2.32,2.32,0,0,0,2.32,2.32H38.68A2.32,2.32,0,0,0,41,58.1V41H58.1a2.32,2.32,0,0,0,2.32-2.32V21.74A2.32,2.32,0,0,0,58.1,19.42Z"/><path class="cls-1" d="M9.94,29.9a4.6,4.6,0,0,1,6.51,0l5.25,5.25L41,15.86V2.32A2.32,2.32,0,0,0,38.68,0H21.74a2.32,2.32,0,0,0-2.32,2.32v17.1H2.32A2.32,2.32,0,0,0,0,21.74V38.68A2.32,2.32,0,0,0,2.32,41H15.44L7.1,32.75Z"/></g></g></svg>