<svg xmlns="http://www.w3.org/2000/svg" xmlns:xlink="http://www.w3.org/1999/xlink" viewBox="0 0 635.86 635.86"><defs><style>.cls-1{opacity:0.15;}.cls-2{fill:#00b76c;}.cls-3{fill:url(#Degradado_sin_nombre_67);}</style><linearGradient id="Degradado_sin_nombre_67" x1="105.71" y1="109.48" x2="302.95" y2="299.96" gradientUnits="userSpaceOnUse"><stop offset="0" stop-color="#007bea"/><stop offset="1" stop-color="#007bea"/></linearGradient></defs><g id="Capa_2" data-name="Capa 2"><g id="Capa_1-2" data-name="Capa 1"><g class="cls-1"><path class="cls-2" d="M611.43,204.38H522.34L245.84,480.87a23.58,23.58,0,0,1-33.27.09l-8.19-8.1V611.43a24.43,24.43,0,0,0,24.43,24.43H407.05a24.43,24.43,0,0,0,24.43-24.43V431.48H611.43a24.43,24.43,0,0,0,24.43-24.43V228.81A24.43,24.43,0,0,0,611.43,204.38Z"/><path class="cls-3" d="M104.63,314.7a48.47,48.47,0,0,1,68.53,0l55.25,55.24L431.48,166.87V24.44A24.44,24.44,0,0,0,407.05,0H228.81a24.44,24.44,0,0,0-24.43,24.44V204.38H24.44A24.44,24.44,0,0,0,0,228.81V407.05a24.44,24.44,0,0,0,24.44,24.43h138.1L74.72,344.62Z"/></g></g></g></svg>