<svg xmlns="http://www.w3.org/2000/svg" xmlns:xlink="http://www.w3.org/1999/xlink" viewBox="0 0 147.35 49.33"><defs><style>.cls-1{fill:#002457;}.cls-2{fill:#007bea;}.cls-3{fill:#00b76c;}.cls-4{fill:url(#Degradado_sin_nombre_67);}</style><linearGradient id="Degradado_sin_nombre_67" x1="8.2" y1="8.49" x2="23.5" y2="23.27" gradientUnits="userSpaceOnUse"><stop offset="0" stop-color="#007bea"/><stop offset="1" stop-color="#007bea"/></linearGradient></defs><g id="Capa_2" data-name="Capa 2"><g id="Capa_1-2" data-name="Capa 1"><path class="cls-1" d="M58,19.47V6h5.32a5.45,5.45,0,0,1,2.62.58,4,4,0,0,1,1.65,1.62,4.8,4.8,0,0,1,.57,2.37,4.78,4.78,0,0,1-.58,2.37,4,4,0,0,1-1.68,1.6,5.58,5.58,0,0,1-2.65.58h-3.4V12.81h2.94a2.77,2.77,0,0,0,1.36-.29,1.85,1.85,0,0,0,.8-.79,2.48,2.48,0,0,0,.27-1.18,2.41,2.41,0,0,0-.27-1.17,1.87,1.87,0,0,0-.81-.79,3,3,0,0,0-1.37-.28H60.81V19.47Z"/><path class="cls-1" d="M70.74,19.47H67.68L72.34,6H76l4.65,13.49H77.61L74.23,9.06h-.11Zm-.19-5.3h7.22V16.4H70.55Z"/><path class="cls-1" d="M93.56,10.7H90.67a2.94,2.94,0,0,0-.32-1A2.47,2.47,0,0,0,89.73,9a2.78,2.78,0,0,0-.88-.48,3.49,3.49,0,0,0-1.08-.16,3.2,3.2,0,0,0-1.83.52,3.31,3.31,0,0,0-1.2,1.5,5.87,5.87,0,0,0-.43,2.39,6,6,0,0,0,.43,2.42A3.27,3.27,0,0,0,86,16.63a3.21,3.21,0,0,0,1.8.5A3.57,3.57,0,0,0,88.81,17a2.91,2.91,0,0,0,.88-.44,2.72,2.72,0,0,0,.63-.72,2.68,2.68,0,0,0,.35-1h2.89A5.26,5.26,0,0,1,93,16.66a5.19,5.19,0,0,1-1.19,1.54A5.54,5.54,0,0,1,90,19.26a6.83,6.83,0,0,1-5.55-.42,5.7,5.7,0,0,1-2.24-2.37,7.86,7.86,0,0,1-.82-3.74A7.77,7.77,0,0,1,82.25,9,5.76,5.76,0,0,1,84.5,6.61a6.38,6.38,0,0,1,3.2-.82,7,7,0,0,1,2.18.33,5.56,5.56,0,0,1,1.78,1,5,5,0,0,1,1.27,1.54A5.69,5.69,0,0,1,93.56,10.7Z"/><path class="cls-1" d="M98.46,6V19.47H95.61V6Z"/><path class="cls-1" d="M100.81,19.47V6h9.09V8.33h-6.23v3.22h5.77V13.9h-5.77v3.22h6.26v2.35Z"/><path class="cls-1" d="M123.46,6V19.47H121L115.13,11H115v8.49h-2.85V6h2.5l5.82,8.49h.12V6Z"/><path class="cls-1" d="M125.3,8.33V6h11.08V8.33h-4.13V19.47h-2.82V8.33Z"/><path class="cls-1" d="M138.21,19.47V6h9.1V8.33h-6.24v3.22h5.77V13.9h-5.77v3.22h6.26v2.35Z"/><path class="cls-2" d="M65.21,20.91V43.67a.38.38,0,0,1-.38.37H58V21.28a.37.37,0,0,1,.38-.37Z"/><path class="cls-2" d="M88.6,38.36a10.57,10.57,0,0,1-4.2,4.16A12.86,12.86,0,0,1,78.05,44H68.41V20.91h9.64a13.17,13.17,0,0,1,6.35,1.47,10.32,10.32,0,0,1,4.2,4.08,11.93,11.93,0,0,1,1.47,5.95A12.07,12.07,0,0,1,88.6,38.36Zm-7.32-2.13a5,5,0,0,0,1.44-3.82,5,5,0,0,0-1.44-3.82,5.44,5.44,0,0,0-3.89-1.34H75.66V37.57h1.73A5.49,5.49,0,0,0,81.28,36.23Z"/><path class="cls-2" d="M99.87,26.5v2.87h7.19v5.46H99.87V38.1H108v5.78H92.62V20.75H108V26.5Z"/><path class="cls-2" d="M125.55,40.38h-7.71l-1.14,3.5h-7.61l8.4-23a.25.25,0,0,1,.24-.17h8.18l8.43,23.13H126.7Zm-1.76-5.45-2.09-6.44-2.09,6.44Z"/><path class="cls-2" d="M143.17,38.39h4.18v5.49H135.91V20.75h7.26Z"/><path class="cls-3" d="M47.43,15.85H40.52L19.07,37.3a1.83,1.83,0,0,1-2.58,0l-.64-.63V47.43a1.9,1.9,0,0,0,1.9,1.9H31.58a1.9,1.9,0,0,0,1.89-1.9v-14h14a1.9,1.9,0,0,0,1.9-1.89V17.75A1.9,1.9,0,0,0,47.43,15.85Z"/><path class="cls-4" d="M8.12,24.41a3.75,3.75,0,0,1,5.31,0l4.29,4.29L33.47,12.94V1.9A1.9,1.9,0,0,0,31.58,0H17.75a1.9,1.9,0,0,0-1.9,1.9v14H1.9A1.9,1.9,0,0,0,0,17.75V31.58a1.9,1.9,0,0,0,1.9,1.89H12.61L5.8,26.73Z"/></g></g></svg>