<svg xmlns="http://www.w3.org/2000/svg" xmlns:xlink="http://www.w3.org/1999/xlink" font-family="Poppins" viewBox="0 0 148.41 49.33"><defs><style>.cls-1{font-size:18.55px;fill:#002457;font-family:Inter-Bold, Inter;font-weight:700;letter-spacing:-0.08em;}.cls-2{letter-spacing:-0.03em;}.cls-3{letter-spacing:0em;}.cls-4{fill:#007bea;}.cls-5{fill:#00b76c;}.cls-6{fill:url(#Degradado_sin_nombre_67);}</style><linearGradient id="Degradado_sin_nombre_67" x1="8.2" y1="8.49" x2="23.5" y2="23.27" gradientUnits="userSpaceOnUse"><stop offset="0" stop-color="#007bea"/><stop offset="1" stop-color="#007bea"/></linearGradient></defs><g id="Capa_2" data-name="Capa 2"><g id="Capa_1-2" data-name="Capa 1"><text class="cls-1" transform="translate(56.78 19.47)">P<tspan class="cls-2" x="10.46" y="0">A</tspan><tspan class="cls-3" x="23.7" y="0">CIENTE</tspan></text><path class="cls-4" d="M65.21,20.91V43.67a.38.38,0,0,1-.38.37H58V21.28a.37.37,0,0,1,.38-.37Z"/><path class="cls-4" d="M88.6,38.36a10.57,10.57,0,0,1-4.2,4.16A12.86,12.86,0,0,1,78.05,44H68.41V20.91h9.64a13.17,13.17,0,0,1,6.35,1.47,10.32,10.32,0,0,1,4.2,4.08,11.93,11.93,0,0,1,1.47,5.95A12.07,12.07,0,0,1,88.6,38.36Zm-7.32-2.13a5,5,0,0,0,1.44-3.82,5,5,0,0,0-1.44-3.82,5.44,5.44,0,0,0-3.89-1.34H75.66V37.57h1.73A5.49,5.49,0,0,0,81.28,36.23Z"/><path class="cls-4" d="M99.87,26.5v2.87h7.19v5.46H99.87V38.1H108v5.78H92.62V20.75H108V26.5Z"/><path class="cls-4" d="M125.55,40.38h-7.71l-1.14,3.5h-7.61l8.4-23a.25.25,0,0,1,.24-.17h8.18l8.43,23.13H126.7Zm-1.76-5.45-2.09-6.44-2.09,6.44Z"/><path class="cls-4" d="M143.17,38.39h4.18v5.49H135.91V20.75h7.26Z"/><path class="cls-5" d="M47.43,15.85H40.52L19.07,37.3a1.83,1.83,0,0,1-2.58,0l-.64-.63V47.43a1.9,1.9,0,0,0,1.9,1.9H31.58a1.9,1.9,0,0,0,1.89-1.9v-14h14a1.9,1.9,0,0,0,1.9-1.89V17.75A1.9,1.9,0,0,0,47.43,15.85Z"/><path class="cls-6" d="M8.12,24.41a3.75,3.75,0,0,1,5.31,0l4.29,4.29L33.47,12.94V1.9A1.9,1.9,0,0,0,31.58,0H17.75a1.9,1.9,0,0,0-1.9,1.9v14H1.9A1.9,1.9,0,0,0,0,17.75V31.58a1.9,1.9,0,0,0,1.9,1.89H12.61L5.8,26.73Z"/></g></g></svg>