<svg xmlns="http://www.w3.org/2000/svg" viewBox="0 0 1107.11 317.18"><defs><style>.cls-1{fill:#00b76c;}</style></defs><g id="Capa_2" data-name="Capa 2"><g id="Capa_1-2" data-name="Capa 1"><path class="cls-1" d="M0,306.44C.07,313,.53,317,.55,317.18l5-.58s-.46-4-.52-10.21Z"/><path class="cls-1" d="M389.79,133.87l1.16,4.86A105.59,105.59,0,0,1,411,136l-.2-5A110.07,110.07,0,0,0,389.79,133.87Z"/><path class="cls-1" d="M431.27,137.13A115.93,115.93,0,0,1,451,142l1.62-4.74A120.79,120.79,0,0,0,432,132.19Z"/><path class="cls-1" d="M351,150.62l2.69,4.21a130.9,130.9,0,0,1,18-9.63l-2-4.58A135.94,135.94,0,0,0,351,150.62Z"/><path class="cls-1" d="M318.91,178l3.74,3.32A148.41,148.41,0,0,1,337.29,167l-3.25-3.8A156.36,156.36,0,0,0,318.91,178Z"/><path class="cls-1" d="M469.73,150.07a168.92,168.92,0,0,1,17.55,10.55l2.82-4.13A173.3,173.3,0,0,0,472,145.63Z"/><path class="cls-1" d="M534.13,201.22c5.44,4.76,10.9,9.22,16.25,13.25l3-4c-5.25-4-10.62-8.34-16-13Z"/><path class="cls-1" d="M567.69,226.37a174.86,174.86,0,0,0,18.54,10l2.1-4.54a169.29,169.29,0,0,1-18-9.73Z"/><path class="cls-1" d="M288.83,205.52l2.71,4.21a131.17,131.17,0,0,0,16.87-12.83l-3.35-3.71A125.28,125.28,0,0,1,288.83,205.52Z"/><path class="cls-1" d="M506.82,169.24l-3.22,3.83c4.95,4.16,9.95,8.73,14.87,13.57l.34.34,3.48-3.59-.31-.3C517,178.15,511.87,173.49,506.82,169.24Z"/><path class="cls-1" d="M211.49,229.66l.32,5a195.36,195.36,0,0,0,20.9-2.5l-.87-4.92A188,188,0,0,1,211.49,229.66Z"/><path class="cls-1" d="M251.76,222.48l1.46,4.78A159.94,159.94,0,0,0,273,219.82l-2.07-4.55A155.49,155.49,0,0,1,251.76,222.48Z"/><path class="cls-1" d="M1.27,285.34l5,.66a116.9,116.9,0,0,1,4.35-19.87l-4.76-1.52A122,122,0,0,0,1.27,285.34Z"/><path class="cls-1" d="M1107.11,153.61a122.18,122.18,0,0,0-3.92-20.84l-4.82,1.34a116.2,116.2,0,0,1,3.76,20Z"/><path class="cls-1" d="M46.85,217.67l1.84,4.64a75.9,75.9,0,0,1,19.49-4.71l-.56-5A80.59,80.59,0,0,0,46.85,217.67Z"/><path class="cls-1" d="M606.09,243.74a100.45,100.45,0,0,0,21,3.55l.28-5a95.24,95.24,0,0,1-19.93-3.38Z"/><path class="cls-1" d="M88.46,217.36a157.86,157.86,0,0,1,20.24,2.94l1-4.9a164.3,164.3,0,0,0-20.88-3Z"/><path class="cls-1" d="M169.86,233.39c7.06.83,14.11,1.37,20.94,1.59l.16-5c-6.69-.21-13.59-.74-20.52-1.56Z"/><path class="cls-1" d="M128.72,225.39c6.86,1.82,13.73,3.41,20.41,4.72l1-4.9c-6.58-1.29-13.34-2.86-20.1-4.66Z"/><path class="cls-1" d="M14.56,245.14l4.27,2.61a63.41,63.41,0,0,1,12.84-15.23l-3.26-3.8A68.85,68.85,0,0,0,14.56,245.14Z"/><path class="cls-1" d="M1019.73,45.35a161,161,0,0,1,18.1,9.54l2.61-4.26a166.79,166.79,0,0,0-18.66-9.84Z"/><path class="cls-1" d="M1011.39,272.7l1.16,4.86a123.38,123.38,0,0,0,20.12-6.71l-2-4.59A118.47,118.47,0,0,1,1011.39,272.7Z"/><path class="cls-1" d="M1048.7,256.75l2.68,4.22a133.8,133.8,0,0,0,16.92-12.72l-3.32-3.74A128.23,128.23,0,0,1,1048.7,256.75Z"/><path class="cls-1" d="M647.38,240.91l1,4.9a78.09,78.09,0,0,0,20.19-7.14l-2.3-4.44A72.81,72.81,0,0,1,647.38,240.91Z"/><path class="cls-1" d="M1079,229.81l3.9,3.13a116.93,116.93,0,0,0,11.75-17.65l-4.4-2.38A111.53,111.53,0,0,1,1079,229.81Z"/><path class="cls-1" d="M1085.73,94.35,1081.52,97l.72,1.13a141,141,0,0,1,9.11,16.79l4.55-2.07a144,144,0,0,0-9.42-17.37Z"/><path class="cls-1" d="M1102.14,174.37a102.46,102.46,0,0,1-2.41,14.11c-.47,1.92-1,3.85-1.59,5.75l4.78,1.47c.61-2,1.17-4,1.66-6a106.33,106.33,0,0,0,2.53-14.81Z"/><path class="cls-1" d="M987.81,275.51a106.35,106.35,0,0,1-16.72-1.36l-.79,4.93a110.34,110.34,0,0,0,17.51,1.43c1.22,0,2.45,0,3.68-.07l-.18-5C990.14,275.49,989,275.51,987.81,275.51Z"/><path class="cls-1" d="M1057.64,62.87l-3.18,3.86a135,135,0,0,1,14.73,14.11l3.72-3.34A139.35,139.35,0,0,0,1057.64,62.87Z"/><path class="cls-1" d="M980.71,32.93a189.52,189.52,0,0,1,19.87,5.13l1.51-4.77A197.48,197.48,0,0,0,981.71,28Z"/><path class="cls-1" d="M759.46,170.21a86.11,86.11,0,0,0-11,2.15l1.27,4.83a83.59,83.59,0,0,1,10.32-2,51.47,51.47,0,0,1,9.45-.37l.29-5A56.28,56.28,0,0,0,759.46,170.21Z"/><path class="cls-1" d="M788.53,179.92a115.91,115.91,0,0,1,17.34,10.6l2.89-4.08a120.62,120.62,0,0,0-18.08-11Z"/><path class="cls-1" d="M822.48,202.89c4.81,3.63,10.46,7.88,16.78,12.38l2.9-4.07c-6.26-4.46-11.89-8.69-16.67-12.3Z"/><path class="cls-1" d="M711.05,192.13l3.2,3.85A100.12,100.12,0,0,1,731,184.63l-2.36-4.41A106.25,106.25,0,0,0,711.05,192.13Z"/><path class="cls-1" d="M692.35,212l-.16.24a65.33,65.33,0,0,1-9.45,10.53l3.37,3.69a77.41,77.41,0,0,0,7.76-8.17,29.25,29.25,0,0,0,2.7-3.61c.29-.41,1.41-2,3.3-4.29L696,207.16C693.64,210,692.4,211.87,692.35,212Z"/><path class="cls-1" d="M856.56,227c5.87,3.77,11.9,7.41,17.9,10.83l2.47-4.35c-5.93-3.37-11.87-7-17.67-10.68Z"/><path class="cls-1" d="M930.11,266.54a208.81,208.81,0,0,0,19.64,7.53l1.53-4.76c-6-1.95-12.3-4.35-19.17-7.35Z"/><path class="cls-1" d="M892.75,247.84c7.47,4,13.17,7,18.46,9.71l2.26-4.46c-5.25-2.66-10.91-5.64-18.35-9.65Z"/><path class="cls-1" d="M960.1,29.82l.5-5c-1.8-.18-3.63-.34-5.46-.47L963.59,0c-12.08,10.83-31.68,21.16-47.5,27.27,16,5.68,35.84,15.49,48.22,26l-9-23.85C956.92,29.53,958.52,29.67,960.1,29.82Z"/></g></g></svg>