<svg xmlns="http://www.w3.org/2000/svg" viewBox="0 0 781.37 256.23"><defs><style>.cls-1{opacity:0.11;}.cls-2{fill:#002148;}</style></defs><g id="Capa_2" data-name="Capa 2"><g id="Capa_1-2" data-name="Capa 1"><g class="cls-1"><path class="cls-2" d="M538.09,256.23c-44.58,0-67.58-18.63-87.88-35.07-18.45-14.95-34.39-27.86-67.5-27.86s-49,12.91-67.5,27.86c-20.3,16.44-43.3,35.07-87.88,35.07s-67.59-18.63-87.88-35.07C121,206.21,105.06,193.3,72,193.3c-26.11,0-40.88,8.09-53,16.83L0,183.91c14.78-10.7,36.31-23,72-23,44.58,0,67.58,18.63,87.88,35.08,18.45,14.94,34.39,27.85,67.5,27.85s49-12.91,67.5-27.86c20.3-16.44,43.3-35.07,87.88-35.07S450.3,179.55,470.59,196c18.46,14.95,34.39,27.86,67.5,27.86s49-12.91,67.51-27.86c20.3-16.44,43.3-35.07,87.88-35.07s67.59,18.63,87.89,35.07L761,221.16c-18.46-14.95-34.39-27.86-67.51-27.86s-49.05,12.91-67.5,27.86C605.68,237.6,582.67,256.23,538.09,256.23Z"/><path class="cls-2" d="M538.09,175.77c-44.58,0-67.58-18.63-87.88-35.07-18.45-14.95-34.39-27.86-67.5-27.86s-49,12.91-67.5,27.86c-20.3,16.44-43.3,35.07-87.88,35.07s-67.59-18.63-87.88-35.07C121,125.75,105.06,112.84,72,112.84c-26.11,0-40.88,8.09-53,16.83L0,103.45c14.78-10.7,36.31-23,72-23,44.58,0,67.58,18.63,87.88,35.08,18.45,14.94,34.39,27.85,67.5,27.85s49-12.91,67.5-27.86c20.3-16.44,43.3-35.07,87.88-35.07s67.59,18.63,87.88,35.07c18.46,14.95,34.39,27.86,67.5,27.86s49-12.91,67.51-27.86c20.3-16.44,43.3-35.07,87.88-35.07s67.59,18.63,87.89,35.07L761,140.7c-18.46-14.95-34.39-27.86-67.51-27.86S644.43,125.75,626,140.7C605.68,157.14,582.67,175.77,538.09,175.77Z"/><path class="cls-2" d="M538.09,95.31c-44.58,0-67.58-18.63-87.88-35.07-18.45-15-34.39-27.86-67.5-27.86s-49,12.91-67.5,27.86c-20.3,16.44-43.3,35.07-87.88,35.07s-67.59-18.63-87.88-35.07C121,45.29,105.06,32.38,72,32.38c-26.11,0-40.88,8.09-53,16.83L0,23C14.78,12.29,36.31,0,72,0c44.58,0,67.58,18.63,87.88,35.08,18.45,14.94,34.39,27.85,67.5,27.85s49-12.91,67.5-27.86C315.13,18.63,338.13,0,382.71,0s67.59,18.63,87.88,35.07c18.46,15,34.39,27.86,67.5,27.86s49-12.91,67.51-27.86C625.9,18.63,648.9,0,693.48,0s67.59,18.63,87.89,35.07L761,60.24c-18.46-15-34.39-27.86-67.51-27.86S644.43,45.29,626,60.24C605.68,76.68,582.67,95.31,538.09,95.31Z"/></g></g></g></svg>