<svg xmlns="http://www.w3.org/2000/svg" viewBox="0 0 1205.82 283.86"><defs><style>.cls-1{opacity:0.36;}.cls-2{fill:#007bea;}</style></defs><g id="Capa_2" data-name="Capa 2"><g id="Capa_1-2" data-name="Capa 1"><g class="cls-1"><polygon class="cls-2" points="1205.82 60.13 1203.89 52.54 1200.6 50.58 1203.86 63.42 1205.82 60.13"/><polygon class="cls-2" points="1197.26 74.5 1189.52 43.98 1186.22 42.02 1195.3 77.8 1197.26 74.5"/><polygon class="cls-2" points="1188.7 88.88 1175.14 35.43 1171.84 33.46 1186.74 92.18 1188.7 88.88"/><polygon class="cls-2" points="1180.14 103.26 1160.76 26.87 1157.46 24.91 1178.18 106.56 1180.14 103.26"/><polygon class="cls-2" points="1171.58 117.64 1146.38 18.31 1143.09 16.35 1169.62 120.93 1171.58 117.64"/><polygon class="cls-2" points="1163.03 132.01 1132.01 9.75 1128.71 7.79 1161.06 135.31 1163.03 132.01"/><polygon class="cls-2" points="1153.28 148.4 1154.47 146.39 1117.63 1.19 1115.62 0 1114.85 1.29 1151.98 147.63 1153.28 148.4"/><polygon class="cls-2" points="1140.9 141.03 1108.26 12.37 1106.3 15.67 1137.6 139.07 1140.9 141.03"/><polygon class="cls-2" points="1126.52 132.47 1099.7 26.75 1097.74 30.05 1123.23 130.51 1126.52 132.47"/><polygon class="cls-2" points="1112.15 123.91 1091.14 41.13 1089.18 44.43 1108.85 121.95 1112.15 123.91"/><polygon class="cls-2" points="1097.77 115.36 1082.58 55.51 1080.62 58.8 1094.47 113.39 1097.77 115.36"/><polygon class="cls-2" points="1083.39 106.8 1074.03 69.88 1072.06 73.18 1080.09 104.83 1083.39 106.8"/><polygon class="cls-2" points="1063.5 87.56 1065.71 96.28 1069.01 98.24 1065.47 84.26 1063.5 87.56"/></g><g class="cls-1"><polygon class="cls-2" points="912.33 172.67 909.88 170.36 908.23 170.41 912.38 174.31 912.33 172.67"/><polygon class="cls-2" points="912.54 179.85 902.69 170.58 901.04 170.63 912.6 181.5 912.54 179.85"/><polygon class="cls-2" points="912.76 187.04 895.51 170.8 893.86 170.85 912.81 188.69 912.76 187.04"/><polygon class="cls-2" points="912.98 194.22 888.32 171.02 886.67 171.07 913.03 195.87 912.98 194.22"/><polygon class="cls-2" points="913.2 201.41 881.13 171.24 879.49 171.29 913.25 203.06 913.2 201.41"/><polygon class="cls-2" points="913.42 208.6 873.95 171.46 872.3 171.51 913.47 210.24 913.42 208.6"/><polygon class="cls-2" points="913.67 216.78 913.64 215.78 866.76 171.67 865.76 171.71 865.78 172.35 913.02 216.8 913.67 216.78"/><polygon class="cls-2" points="907.48 216.97 865.95 177.89 866 179.54 905.84 217.02 907.48 216.97"/><polygon class="cls-2" points="900.3 217.19 866.17 185.07 866.22 186.72 898.65 217.24 900.3 217.19"/><polygon class="cls-2" points="893.11 217.41 866.39 192.26 866.44 193.91 891.46 217.46 893.11 217.41"/><polygon class="cls-2" points="885.93 217.63 866.61 199.45 866.65 201.09 884.28 217.68 885.93 217.63"/><polygon class="cls-2" points="878.74 217.85 866.82 206.63 866.87 208.28 877.09 217.9 878.74 217.85"/><polygon class="cls-2" points="867.09 215.47 869.91 218.12 871.55 218.06 867.04 213.82 867.09 215.47"/></g><g class="cls-1"><polygon class="cls-2" points="615.84 173.4 612.96 164.37 608.84 162.24 613.7 177.53 615.84 173.4"/><polygon class="cls-2" points="606.53 191.39 594.97 155.07 590.84 152.94 604.4 195.52 606.53 191.39"/><polygon class="cls-2" points="597.23 209.38 576.98 145.77 572.85 143.64 595.1 213.51 597.23 209.38"/><polygon class="cls-2" points="587.93 227.38 558.98 136.47 554.86 134.33 585.79 231.5 587.93 227.38"/><polygon class="cls-2" points="578.63 245.37 540.99 127.17 536.86 125.03 576.49 249.5 578.63 245.37"/><polygon class="cls-2" points="569.32 263.36 523 117.86 518.87 115.73 567.19 267.49 569.32 263.36"/><polygon class="cls-2" points="558.73 283.86 560.02 281.36 505 108.56 502.5 107.26 501.66 108.88 557.11 283.03 558.73 283.86"/><polygon class="cls-2" points="543.24 275.86 494.49 122.75 492.36 126.88 539.11 273.73 543.24 275.86"/><polygon class="cls-2" points="525.25 266.56 485.19 140.74 483.05 144.87 521.12 264.42 525.25 266.56"/><polygon class="cls-2" points="507.25 257.25 475.89 158.74 473.75 162.86 503.13 255.12 507.25 257.25"/><polygon class="cls-2" points="489.26 247.95 466.58 176.73 464.45 180.86 485.13 245.82 489.26 247.95"/><polygon class="cls-2" points="471.27 238.65 457.28 194.72 455.15 198.85 467.14 236.52 471.27 238.65"/><polygon class="cls-2" points="445.85 216.84 449.15 227.21 453.27 229.35 447.98 212.72 445.85 216.84"/></g><g class="cls-1"><polygon class="cls-2" points="182.9 63.98 183.51 61.13 182.74 59.92 181.69 64.76 182.9 63.98"/><polygon class="cls-2" points="177.65 67.37 180.12 55.88 179.35 54.68 176.45 68.15 177.65 67.37"/><polygon class="cls-2" points="172.41 70.76 176.74 50.63 175.96 49.43 171.2 71.54 172.41 70.76"/><polygon class="cls-2" points="167.16 74.15 173.35 45.39 172.57 44.19 165.96 74.92 167.16 74.15"/><polygon class="cls-2" points="161.91 77.54 169.96 40.14 169.18 38.94 160.71 78.31 161.91 77.54"/><polygon class="cls-2" points="156.67 80.92 166.57 34.9 165.79 33.69 155.47 81.7 156.67 80.92"/><polygon class="cls-2" points="150.69 84.79 151.42 84.31 163.18 29.65 162.71 28.92 162.24 29.23 150.39 84.31 150.69 84.79"/><polygon class="cls-2" points="147.77 80.27 158.19 31.84 156.99 32.61 147 79.07 147.77 80.27"/><polygon class="cls-2" points="144.39 75.03 152.95 35.23 151.74 36 143.61 73.82 144.39 75.03"/><polygon class="cls-2" points="141 69.78 147.7 38.61 146.5 39.39 140.22 68.58 141 69.78"/><polygon class="cls-2" points="137.61 64.53 142.46 42 141.25 42.78 136.83 63.33 137.61 64.53"/><polygon class="cls-2" points="134.22 59.29 137.21 45.39 136.01 46.17 133.44 58.08 134.22 59.29"/><polygon class="cls-2" points="130.76 49.56 130.05 52.84 130.83 54.04 131.96 48.78 130.76 49.56"/></g><g class="cls-1"><polygon class="cls-2" points="116.2 185.12 117.55 178.84 115.84 176.19 113.56 186.82 116.2 185.12"/><polygon class="cls-2" points="104.67 192.57 110.1 167.3 108.39 164.66 102.02 194.28 104.67 192.57"/><polygon class="cls-2" points="93.13 200.02 102.65 155.77 100.94 153.12 90.48 201.73 93.13 200.02"/><polygon class="cls-2" points="81.59 207.47 95.2 144.23 93.49 141.58 78.95 209.18 81.59 207.47"/><polygon class="cls-2" points="70.06 214.92 87.75 132.69 86.04 130.05 67.41 216.63 70.06 214.92"/><polygon class="cls-2" points="58.52 222.37 80.29 121.16 78.58 118.51 55.88 224.08 58.52 222.37"/><polygon class="cls-2" points="45.38 230.86 46.99 229.82 72.84 109.62 71.8 108.02 70.77 108.69 44.71 229.82 45.38 230.86"/><polygon class="cls-2" points="38.97 220.93 61.88 114.43 59.23 116.14 37.26 218.29 38.97 220.93"/><polygon class="cls-2" points="31.52 209.4 50.34 121.88 47.7 123.59 29.81 206.75 31.52 209.4"/><polygon class="cls-2" points="24.06 197.86 38.8 129.33 36.16 131.04 22.35 195.22 24.06 197.86"/><polygon class="cls-2" points="16.61 186.33 27.27 136.78 24.62 138.49 14.9 183.68 16.61 186.33"/><polygon class="cls-2" points="9.16 174.79 15.73 144.23 13.09 145.94 7.45 172.15 9.16 174.79"/><polygon class="cls-2" points="1.55 153.4 0 160.61 1.71 163.26 4.2 151.69 1.55 153.4"/></g></g></g></svg>