<svg xmlns="http://www.w3.org/2000/svg" viewBox="0 0 29.94 29.94"><defs><style>.cls-1{fill:#fff;}</style></defs><g id="Capa_2" data-name="Capa 2"><g id="Capa_1-2" data-name="Capa 1"><path class="cls-1" d="M15,0a15,15,0,1,0,15,15A15,15,0,0,0,15,0Zm9.91,18.59a10.55,10.55,0,0,1-1.83,3,11.06,11.06,0,0,1-2.42,2.11,10.29,10.29,0,0,1-3,1.27c-.4.1-.8.19-1.2.25l-.75.08a10.07,10.07,0,0,1-1.1,0,7.54,7.54,0,0,1-.82-.06c-.34,0-.68-.09-1-.16A10.43,10.43,0,0,1,9.8,24l-.38-.22a.67.67,0,0,0-.43-.1.47.47,0,0,0-.17,0l-3.43.9-.27.06c0-.1,0-.18.06-.26.31-1.13.62-2.27.94-3.41a.57.57,0,0,0-.07-.49,10.15,10.15,0,0,1-1.42-3.25,8.68,8.68,0,0,1-.25-1.35,8.77,8.77,0,0,1-.06-1.7,9.85,9.85,0,0,1,.1-1.08,11.2,11.2,0,0,1,.46-1.9,10.67,10.67,0,0,1,7.41-6.86,9.76,9.76,0,0,1,1.22-.25c.26,0,.53-.06.8-.08s.54,0,.82,0l.7,0,.72.08a10.67,10.67,0,0,1,1.25.26A10.4,10.4,0,0,1,22,6.62,10.59,10.59,0,0,1,25.31,12a12,12,0,0,1,.25,1.33,11.27,11.27,0,0,1,.07,1.54A11,11,0,0,1,24.88,18.59Z"/><path class="cls-1" d="M21.19,17.51l0,0-2.34-1.13a2.16,2.16,0,0,0-.45-.15.36.36,0,0,0-.32.07.52.52,0,0,0-.1.11c-.35.42-.69.84-1,1.27l-.12.12a.35.35,0,0,1-.35.08,1.52,1.52,0,0,1-.2-.06l-.33-.15a9,9,0,0,1-1.46-.8A9,9,0,0,1,11.85,14l0-.1a.39.39,0,0,1,0-.4l.12-.14a8,8,0,0,0,.53-.63,2.07,2.07,0,0,0,.27-.45.68.68,0,0,0,0-.56l-1-2.37c-.06-.13-.12-.24-.19-.36a.44.44,0,0,0-.38-.22l-.76,0a1.06,1.06,0,0,0-.79.32,4.28,4.28,0,0,0-.62.72,3.39,3.39,0,0,0-.59,1.82,4.29,4.29,0,0,0,.22,1.51,6,6,0,0,0,.64,1.35c.27.43.56.84.86,1.24a15.83,15.83,0,0,0,2.55,2.69,10.27,10.27,0,0,0,2,1.32,14.94,14.94,0,0,0,1.81.74l.53.17a3.88,3.88,0,0,0,1.31.19l.39,0,.35-.05a3.33,3.33,0,0,0,.75-.26,4,4,0,0,0,1-.74,1.34,1.34,0,0,0,.34-.53l.09-.29a3.07,3.07,0,0,0,.13-.95A.47.47,0,0,0,21.19,17.51Z"/></g></g></svg>